# xmcd
#
# Track frame offsets: 
#        150
#        10281
#        25440
#        35787
#        46743
#        57182
#        67088
#        79709
#        88369
#        99285
#        110117
#        122452
#        135616
#        148956
#        162546
#        172631
#        183590
#        196674
#        208036
#        219026
#        231144
#        239677
#        252667
#        263399
#        272916
#        282295
#
# Disc length: 3898 seconds
#
# Revision: 0
# Processed by: cddbd v1.5.2PL0 Copyright (c) Steve Scherf et al.
# Submitted via: ExactAudioCopy v1.1
#
DISCID=7f0f381a
DTITLE=George Jones - Big Box Of George Jones_CD1
DYEAR=2015
DGENRE=Country
TTITLE0=I Walk The Line
TTITLE1=Cold, Cold Heart
TTITLE2=Why Baby Why
TTITLE3=Will The Circle Be Unbroken
TTITLE4=She Once Lived Here
TTITLE5=Jambalaya (On The Bayou)
TTITLE6=You Never Thought
TTITLE7=Hold Everything
TTITLE8=Cup Of Loneliness
TTITLE9=Bubble In My Beer
TTITLE10=Best Guitar Picker
TTITLE11=Yearning (To Kiss You)
TTITLE12=Life To Go
TTITLE13=Wedding Bells
TTITLE14=It's A Sin
TTITLE15=Tender Years
TTITLE16=Satisfied Mind (Joe 'Red' Hayes)
TTITLE17=Flame In My Heart
TTITLE18=Lonesome Whistle
TTITLE19=The Same Sweet Girl
TTITLE20=Heartbreak Hotel
TTITLE21=I Love You Beacause
TTITLE22=Worried Mind
TTITLE23=If You Don't Somebody Else Will
TTITLE24=No No Never
TTITLE25=Talk About Loving
EXTD=
EXTT0=
EXTT1=
EXTT2=
EXTT3=
EXTT4=
EXTT5=
EXTT6=
EXTT7=
EXTT8=
EXTT9=
EXTT10=
EXTT11=
EXTT12=
EXTT13=
EXTT14=
EXTT15=
EXTT16=
EXTT17=
EXTT18=
EXTT19=
EXTT20=
EXTT21=
EXTT22=
EXTT23=
EXTT24=
EXTT25=
PLAYORDER=
